<?xml version="1.0" encoding="utf-8"?>

<!DOCTYPE svg PUBLIC "-//W3C//DTD SVG 1.1//EN" "http://www.w3.org/Graphics/SVG/1.1/DTD/svg11.dtd">
<svg version="1.1" id="Layer_1" xmlns="http://www.w3.org/2000/svg" xmlns:xlink="http://www.w3.org/1999/xlink" x="0px" y="0px"
	 viewBox="0 0 2453.654 1684.424" enable-background="new 0 0 2453.654 1684.424" xml:space="preserve">
<g>
	<path d="M2387.035,1054.258c-2.949-10.509-6.228-8.987-5.83-16.228c1.306-23.803-11.476-53.17-14.346-57.134
		c-8.645-11.941-16.905,4.169-21.685,18.024c-5.021,14.554-10.81,28.839-15.559,43.466c-1.573,4.847-5.711,8.435-5.873,13.778
		c-0.035,1.163-4.989,1.78-6.837-1.353c-5.01-8.488-18.423-6.073-26.145-4.653c-5.197,0.956-5.171-0.038-8.836-8.275
		c-3.097-6.959-6.973-13.632-8.915-21.036c-4.237-16.158-18.08-52.936-29.267-35.643c-14.539,22.477-17.648,46.227-14.955,56.686
		c0.684,2.656,0.813,5.496-1.17,8.122c-7.707,10.204-2.725,14.6-6.029,18.856c-2.749-0.799-5.635-1.552-8.366-0.683
		c-5.281,1.68-10.855,1.634-16.164,3.239c-14.264,4.313-14.458-5.238-25.885-4.532c-11.569,0.715-26.902-1.53-37.618,4.599
		c-0.878,0.502-2.056,0.639-3.103,0.666c-12.45,0.321-32.268,10.164-35.7,11.254c-9.705,3.079-14.783,13.227-18.646,6.989
		c-2.971-4.797-6.567-9.402-7.966-14.941c-2.587-10.245-3.572-8.708-5.376-17.219c-1.624-7.659-1.072-15.537-2.554-23.239
		c-2.269-11.795,5.143-35.35,5.365-52.526c0.137-10.633,1.029-21.235,1.465-31.856c0.332-8.065-1.99-20.584,4.326-26.969
		c4.069-4.113,0.497-9.961-3.489-6.46c-4.27,3.749-9.169,7.011-12.629,11.404c-6.366,8.083-14.857,16.37-25.44,43.687
		c-8.099,20.906-17.739,56.333-14.584,77.387c1.901,12.69,2.646,39.332,18.096,61.029c2.973,4.177,2.745,10.194,4.583,14.807
		c2.219,5.568,1.847,10.326-2.158,15.05c-4.015,4.737-5.29,2.07-17.381,1.305c-9.157-0.58-11.516-10.063-21.905-9.466
		c-22.216,1.278-137.528-20.326-140.161-21.413c-5.479-2.264-11.152-3.616-16.963-4.23c-12.263-1.296-13.503-4.782-25.813-6.027
		c-16.438-1.663-15.872-6.061-29.405-6.861c-12.435-0.736-10.391-3.529-28.635-6.519c-12.255-2.008-24.268-5.339-36.148-8.61
		c-14.351-3.952-29.292-5.468-43.261-10.829c-1.464-0.562-3.109-0.802-4.686-0.89c-5.596-0.313-10.808-2.151-15.877-4.239
		c-11.806-4.864-15.615-1.319-27.583-7.26c-5.489-2.724-12.245-1.658-19.624-4.346c-8-2.915-15.854-5.981-24.397-7.094
		c-6.69-0.872-12.66-4.366-19.195-6.04c-5.32-1.363-10.89-1.188-16.077-3.481c-6.647-2.938-13.576-5.149-20.969-5.663
		c-6.95-0.483-8.541-4.843-25.04-6.929c-11.529-1.457-10.614-5.948-24.726-7.477c-9.834-1.065-17.737-7.308-30.97-9.206
		c-8.228-1.18-16.139-6.189-23.323-6.944c-9.338-0.981-13.166-3.415-22.015-7.03c-3.521-1.438-7.55-0.618-10.913-2.018
		c-19.36-8.057-26.105-8.049-28.753-8.829c-6.967-2.051-13.492-5.531-20.767-6.526c-8.236-1.126-8.621-2.828-25.844-8.088
		c-2.011-0.614-4.255-0.479-6.257-1.112c-5.197-1.645-10.261-3.722-15.484-5.272c-8.99-2.668-18.365-4.064-26.941-8.09
		c-3.923-1.842-8.314-1.662-12.332-3.107c-6.16-2.215-12.398-4.214-18.568-6.405c-3.529-1.253-7.343-1.096-10.852-2.601
		c-18.257-7.828-25.961-7.154-34.8-11.254c-1.902-0.882-3.826-1.804-5.972-2.211c-14.099-2.678-84.147-26.209-84.681-26.322
		c-4.856-1.028-9.9-1.51-14.397-3.704c-4.345-2.119-8.767-3.922-13.51-4.72c-11.873-1.998-18.258-6.266-21.681-7.023
		c-9.357-2.071-18.563-4.62-27.416-8.357c-1.289-0.544-2.736-0.77-4.134-0.992c-14.222-2.254-14.684-5.888-32.087-9.565
		c-13.261-2.801-10.287-4.885-24.822-7.763c-17.106-3.388-11.408-5.905-26.838-8.313c-2.669-0.417-7.972-1.162-19.554-6.61
		c-3.98-1.872-8.335-1.469-12.411-2.809c-6.556-2.156-12.871-5.021-19.681-6.483c-15.359-3.297-155.884-49.106-155.345-48.936
		c-2.406-0.756-4.893-0.703-7.232-1.59c-8.448-3.202-16.856-6.532-25.411-9.42c-5.282-1.783-9.59-5.42-14.768-7.175
		c-2.532-0.858-3.193-1.626-2.102-4.023c3.453-7.585-1.909-11.934,0.249-16.691c3.378-7.446-2.058-16.934-9.661-19.772
		c-13.466-5.027-11.071,6.808-21.721-0.942c-5.665-4.123-5.625-6.284-8.953-6.004c-1.681,0.141-2.653-2.384,1.191-6.188
		c13.964-13.822,12.689-12.39,15.867-17.159c5.211-7.82-21.815-13.07-26.451-12.733c-7.35,0.536-0.782,13.477-2.807,21.948
		c-7.945-4.588-14.266-1.892-19.978,3.57c-3.378,3.231-4.945,0.822-7.656,7.36c-1.447,3.491-1.772,7.464-4.05,10.857
		c-5.799-3.046-11.241-6.061-17.389-7.342c-1.129-0.235-1.802-1.066-2.57-1.802c-10.224-9.802-10.442-9.364-10.282-11.115
		c0.28-3.087-1.66-4.871-3.862-6.526c-18.253-13.715-38.477-29.787-61.369-26.342c-4.881,0.735-8.047-4.345-10.231-5.847
		c-5.066-3.483,8.125-4.398,13.689-9.449c0.669-0.607,1.545-0.977,1.115-2.058c-2.331-5.856-12.326,2.63-18.777,3.194
		c-0.279-0.739-0.53-1.211-0.635-1.713c-3.41-16.276-15.907-12.107-14.482-23.351c0.126-0.995-0.502-8.892-7.06-6.392
		c-7.033,2.681-8.158,6.183-10.786,3.705c-1.73-1.631-3.561-3.15-2.284-5.875c2.361-5.036,1.165-14.864,3.236-17.576
		c1.433-1.876,1.359-3.879,1.427-6.036c0.833-26.346,0.6-27.622,5.167-26.878c6.732,1.096,7.636-3.722,22.64,0.823
		c25.721,7.791,35.067,3.512,63.666,2.794c2.625-0.066,14.259-3.145,21.503-2.365c14.879,1.601,11.425,10.396,20.571,11.45
		c5.995,0.69,17.673,8.48,24.822,10.755c12.97,4.126,14.731,12.202,25.992,15.202c10.242,2.729,9.314-5.222,13.075-6.931
		c8.477-3.853,5.433-11.888,11.085-11.822c5.49,0.065,6.983-6.809,6.87-12.508c-0.13-6.599,3.032-3.53,5.042-9.139
		c2.968-8.283-6.824-25.962-20.548-29.958c-5.77-1.68-11.25-4.449-17.398-4.795c-0.863-0.049-1.868-0.251-2.533-0.748
		c-14.653-10.957-35.197-2.084-47.125-5.58c-20.162-5.909-44.636-5.8-66.981-14.32c-13.762-5.247-27.705-10.014-40.622-17.303
		c-4.338-2.448-8.31-6.165-13.908-5.309c-1.093-10.726-4.059-20.594-6.502-30.579c-5.628-23.004,0.365-18.951-1.744-32.717
		c-0.792-5.171,2.717-9.926,1.957-14.936c-1.596-10.511-3.255-21.019,0.627-31.476c1.211-3.264,2.395-15.488,4.584-22.417
		c3.42-10.824,3.742-21.799,3.466-33.045c-0.205-8.363-4.77-13.204-10.844-17.051c-18.88-11.956-38.257-8.409-54.725-9.978
		c-1.265-0.121-27.866-1.311-37.348-5.938c0.561-0.844,0.945-1.651,1.53-2.267c7.764-8.172,5.983-18.9,6.782-26.585
		c2.653-25.495,13.927-45.523,15.187-53.521c0.962-6.107,6.315-2.563,12.553-8.039c5.697-5,8.074-11.304,7.807-18.475
		c-0.294-7.86,4.132-15.068,4.346-15.601c4.259-10.614-14.036-6.329-19.424-6.716c-6.008-0.431-8.351-2.429-9.204-8.301
		c-0.689-4.74-1.391-9.576-1.169-14.327c0.312-6.711-3.089-10.703-4.885-16.632c-1.733-5.717-1.63-11.009-4.47-16.663
		c-3.666-7.299-3.965-16.481-9.028-22.754c-4.537-5.621-11.364-9.093-17.263-13.044c-18.203-12.193-31.466-13.208-41.822-21.301
		c-1.661-1.298-10.603-2.063-15.744-1.849c-9.795,0.408-34.979,16.667-37.244,5.357c-0.413-2.063-1.602-3.963-2.081-6.021
		c-0.648-2.784-2.661-4.074-4.993-3.775c-7.088,0.911-10.701-4.328-15.279-0.9c-1.963,1.47-4.651,2.129-6.533,0.924
		c-2.767-1.772-6.332-1.295-8.726-3.641c-0.908-0.89-1.885-0.53-2.952-0.491c-8.709,0.322-11.641,10.508-13.854,11.18
		c-10.332,3.139-13.1,23.969-17.644,31.312c-0.238,0.384-0.073,1.044-0.029,1.57c0.524,6.261-7.134,15.942-8.386,27.729
		c-2.151,20.238-25.756,62.622-30.985,66.276c-8.494,5.936-3.767,15.733-15.32,18.344c-3.992,0.902-9.475,2.407-11.688,5.724
		c-3.435,5.15-7.374,4.37-11.547,5.492c-3.824,1.028-2.761,5.999,0.183,6.596c5.763,1.17,6.618-3.216,13.166,4.295
		c2.942,3.374-2.976,3.848-0.901,10.85c1.256,4.239-0.476,8.352-0.422,12.484c0.125,9.673-12.881,19.604-14.427,30.85
		c-0.596,4.337,0.548,8.709,0.7,13.084c0.27,7.742-5.138,8.769-7.352,14.643c-2.334,6.206-9.735,7.972-10.882,9.694
		c-7.102,10.661-17.882,7.464-16.534,12.448c1.723,6.368,2.498,1.818,11.202,5.739c3.119,1.405,7.952-0.305,10.04-1.797
		c6.296-4.5,13.822-7.049,19.579-12.42c1.385-1.292,3.394-0.949,4.408,0.182c7.103,7.916,16.012-6.237,19.725,6.859
		c0.782,2.759,0.586,6.03,4.201,7.305c3.084,1.087-1.264,7.253,4.657,6.628c2.21-0.233,4.331,0.336,6.674-0.696
		c2.726-1.2,5.634,0.455,5.362,2.43c-0.405,2.94-0.592,5.981-2.362,8.642c-0.841,1.264-3.403,2.033-2.467,3.645
		c1.163,2.003,3.485-0.15,5.296,0.288c1.339,0.324,3.948-3.999,9.836,2.389c6.429,6.975-2.377,14.295-10.26,19.542
		c-14.855,9.887-15.665,29.412-18.651,47.498c-10.014,60.636-2.341,39.758-7.412,96.008c-4.95,54.894,3.52,90.617,7.556,120.868
		c4.682,35.087,10.521,46.738,15.762,60.584c3.005,7.939,11.145,14.634,19.461,13.864c7.17-0.664,14.006-0.329,21.001,0.826
		c9.3,1.536,9.023-4.423,12.68-1.125c2.353,2.123-3.428,6.451-2.668,14.693c0.897,9.73-3.798,16.423-5.983,25.433
		c-1.896,7.816-3.399,23.636-6.215,31.509c-3.465,9.687-7.262,19.356-6.193,30.005c0.276,2.753-0.43,5.177-2.161,7.45
		c-5.105,6.706-11.191,44.096-15.067,62.206c-0.366,1.709,0.363,4.917-1.964,4.894c-2.915-0.029-1.246-3.438-2.156-5.146
		c-0.077-0.145-0.247-0.241-0.837-0.793c-1.264,3.815-6.254,4.223-5.968,7.572c0.393,4.606-0.047,9.417,1.816,13.717
		c0.876,2.023,0.953,2.794-0.76,4.324c-5.159,4.607,0.627,10.417,8.006,6.924c8.584-4.064,7.165,6.137,8.69,17.427
		c5.085,37.658,47.242,145.995,50.249,206.847c0.362,7.332,1.757,43.244-0.932,54.187c-2.013,8.194-2.496,1.524-8.865,31.627
		c-8.348,39.458-10.769,55.538,5.003,108.557c1.59,5.346,4.135,10.279,4.855,16.048c6.632,53.114,16.461,62.643,19.038,95.899
		c1.335,17.224-10.113,18.92-3.098,31.582c2.1,3.791,3.176,7.875,4.699,11.789c0.923,2.371,0.934,6.126,1.208,8.689
		c0.644,6.03-2.808,12.999-4.103,18.899c-4.01,18.259-1.218,48.765-7.815,59.044c-2.755,4.292-2.747,9.517-4.521,14.097
		c-1.588,4.097-2.307,8.099-2.01,12.42c0.305,4.43,0.456,4.765,4.889,4.878c30.74,0.783,33.39,1.359,44.611,0.463
		c23.835-1.903,25.925,7.155,32.26-13.101c2.928-9.362-0.366-10.991-1.179-17.633c-1.724-14.093-8.329-21.506-9.854-32.281
		c-0.894-6.316-2.474-12.162-0.325-18.652c2.157-6.516,1.455-13.654,3.195-20.417c6.617-25.705-7.28-31.349-6.523-39.431
		c1.219-13.015-6.049-16.457-4.308-35.022c6.51-69.423,9.379-47.609,13.27-88.594c0.828-8.719,7.614-30.404,9.506-62.701
		c0.731-12.476-0.363-47.799-0.492-48.937c-3.23-29.257,15.592-41.579,11.98-83.66c-0.573-6.679-2.718-13.659-2.502-20.271
		c2.818-86.469-6.792-58.221,3.844-131.136c5.245-35.957,1.385-38.556,4.805-41.585c4.457,2.477,4.656,10.839,10.064,11.596
		c5.908,0.826-0.392-5.939,5.753-7.337c0.343-0.078,0.806-0.858,0.753-1.252c-0.762-5.738,7.917-0.735,5.315-6.666
		c-0.521-1.188-0.736-2.777,0.349-3.477c5.003-3.228,0.16-10.598,4.256-10.639c1.879-0.019,2.869,0.68,3.122,2.739
		c3.627,29.47,10.932,61.177,11.487,69.859c0.997,15.599,10.702,35.613,11.298,54.489c0.097,3.078-0.05,36.94,2.65,52.47
		c4.47,25.71,4.355,66.287,7.893,82.531c0.564,2.588,2.094,5.035,1.713,7.741c-0.937,6.669-0.846,13.477-2.684,20.024
		c-0.829,2.952-6.737,26.185-8.296,51.103c-1.397,22.316,2.001,24.764,5.237,56.079c1.029,9.959-0.404,43.593,0.804,58.837
		c2.516,31.767,5.688,48.412,2.758,61.347c-1.233,5.446-4.278,10.271-5.278,15.792c-1.034,5.705-1.42,11.449-3.643,16.884
		c-1.674,4.093-3.646,7.928-3.632,12.456c0.015,5.002,0.412,9.719-0.968,14.647c-2.988,10.667,2.368,21.168,9.697,27.519
		c10.689,9.263,4.058,15.324,4.36,20.327c1.008,16.675,0.252,24.266,6.176,27.418c3.466,1.845,6.273,5.448,10.899,4.858
		c0.548-0.07,1.362,0.508,1.767,1.014c2.746,3.429,6.058,2.24,17.22,4.172c8.82,1.526,4.057-5.439,12.944-2.217
		c5.126,1.858,8.956,0.338,12.087-4.412c0.533-0.809,1.09-1.572,2.005-1.446c5.049,0.692,8.707-2.463,12.77-4.488
		c6.426-3.202,6.816-8.83,4.363-13.939c-2.101-4.376-4.586-8.806-7.855-12.325c-4.295-4.622-7.237-10.077-10.873-15.083
		c-6.828-9.404-7.218-23.004-12.135-32.058c-6.142-11.31,1.914-7.836-2.884-17.606c-2.089-4.254-1.944-8.892-0.146-12.84
		c2.649-5.817,2.558-11.601,2.22-17.669c-1.734-31.081,1.341-21.272,3.384-34.502c1.256-8.135,3.218-11.985,13.01-36.906
		c10.635-27.069,24.638-76.647,31.515-104.533c8-32.439,7.554-56.992,1.569-81.08c-2.122-8.541-1.067-21.956-4.047-31.656
		c-2.711-8.823-2.11-17.004-2.069-24.797c0.134-25.678-1.132-49.87,11.94-96.734c13.758-49.323,20.201-112.044,10.939-164.403
		c-2.049-11.583,10.323,1.376,10.518-8.226c0.051-2.533-1.393-5.203,0.906-7.593c0.906-0.942-0.234-1.872-0.998-2.629
		c-1.351-1.338-3.026-0.803-4.566-0.794c-4.752,0.027-4.876,0.096-5.749-4.522c-4.92-26.033,3.518-34.96-3.726-45.494
		c-1.893-2.754-3.077-5.989-4.654-8.969c-2.035-3.843-2.151-7.643-0.635-11.772c2.888-7.867,0.204-16.139-6.525-21.093
		c-2.681-1.974-4.638-4.183-4.364-7.921c0.724-9.859-7.015-10.392-2.11-18.733c2.179-3.705,1.559-7.027,0.283-10.656
		c-1.631-4.639-1.543-4.666,2.63-7.158c2.174-1.298,3.662-2.731,2.686-5.066c-1.784-4.265-6.139,2.43-6.989-3.785
		c-0.608-4.445,1.176-7.047,5.927-6.356c3.714,0.54,5.698-0.838,7.582-3.179c1.208-1.5,2.169-1.006,3.642-0.569
		c20.075,5.953,40.619,10.066,60.854,15.4c7.91,2.085,0.898-3.405,12.333-1.395c3.501,0.615,18.711,9.687,23.429,21.146
		c1.627,3.952,4.102,7.836,8.197,10.122c0.547,0.305,0.992,1.018,1.217,1.638c2.097,5.779,6.708,9.522,11.351,12.863
		c10.279,7.397,10.47-5.518,15.119-4.737c14.671,2.463,24.998,13.664,31.074,6.118c2.909-3.613,10.273,3.305,17.589,4.835
		c8.937,1.869,2.545,8.263,9.831,10.316c2.975,0.839,5.982-3.34,6.269-4.068c2.527-6.412,7.404-0.071,18.801,2.719
		c13.782,3.373,27.028,8.448,40.535,12.657c867.58,270.286,881.899,266.757,1062.363,308.046c11.876,2.717,24.131,3.99,35.658,8.138
		c6.593,2.372,13.641,2.041,20.292,4.035c5.419,1.624,10.948,3.552,16.514,3.872c11.206,0.643,20.944,6.361,31.785,8.208
		c3.96,0.675,8.123,0.956,11.948,2.385c9.343,3.492,44.152,12.335,45.6,12.352c16.841,0.192,22.768,6.681,26.55,1.706
		c1.926-2.533,7.677-1.877,17.506-0.072c8.759,1.608-6.423,19.93-5.943,27.109c1.16,17.358-6.593,37.646-5.721,49.013
		c4.242,55.274,3.674,31.844,5.69,43.564c1.182,6.874,3.205,13.455,6.671,19.54c0.447,0.784,0.902,1.5,0.843,2.45
		c-0.358,5.789-0.35,11.559-2.196,17.231c-4.595,14.12,6.995,24.563,7.862,33.498c0.917,9.452,5.991,8.956,7.495,10.765
		c1.283,1.544,1.79,4.829,2.388,6.732c4.037,12.854,5.109,26.398,5.974,39.732c0.67,10.411-2.958,20.107-4.792,30.1
		c-1.368,7.447-10.789,10.689-7.578,20.041c1.423,4.146,1.311,8.339,2.079,12.471c5.659,30.441,1.48,36.806,7.61,42.295
		c0.352,0.315,2.594,13.286,2.74,14.589c0.75,6.676-0.49,13.498,1.682,20.079c2.24,6.787-10.385,9.69-0.29,22.126
		c0.926,1.14,2.231,2.222,1.566,3.657c-2.37,5.117,2.392,7.921-0.788,13.375c-1.613,2.765-0.919,6.534,1.671,8.427
		c3.682,2.692,1.902,4.953,3.909,5.975c4.635,2.36,8.702,6.538,14.609,4.99c2.366-0.62,3.621-0.001,4.411,2.307
		c0.456,1.333,1.727,3.041,3.104,2.141c10.182-6.656-0.972-5.745,10.131-14.497c1.794-1.414,1.947-2.821,0.88-4.558
		c-2.713-4.418,0.279-8.641-0.95-13.277c-0.35-1.32-1.008-2.549-1.284-3.888c-0.52-2.522,0.478-5.328,0.066-8.092
		c-0.485-3.262-1.487-6.431-0.793-9.949c0.615-3.114-0.437-6.455-2.51-8.981c-7.508-9.146-8.386-20.746-11.521-31.427
		c-2.255-7.683-1.337-16.045-3.465-23.916c-0.685-2.536-2.189-13.486-0.868-15.734c5.862-9.972-5.427-21.263,1.665-29.285
		c0.659-0.746,0.816-1.95,1.163-2.957c2.016-5.837,3.404-11.881,6.575-17.324c2.832-4.86,0.371-2.772,6.055-17.493
		c10.783-27.925,3.315-30.803,13.921-46.344c9.714-14.234,3.587-24.217,7.26-44.446c6.966,2.571,10.75,8.619,16.557,12.01
		c3.667,2.141,5.798,8.228,8.88,11.361c29.185,29.676,23.19,54.072,23.726,57.119c0.743,4.228,0.385,8.551-0.482,12.714
		c-2.352,11.289,2.592,17.205,0.415,27.511c-1.776,8.404-3.479,24.262-6.192,33.125c-1.309,4.276-3.517,8.153-4.741,12.413
		c-1.232,4.292-3.154,8.181-5.469,12.021c-8.228,13.649,1.087,9.301-3.023,22.536c-5.45,17.55,4.053,28.821,3.794,34.024
		c-0.821,16.505,7.836,16.927,8.372,27.253c0.48,9.243,4.196,13.433,2.118,19.827c-2.739,8.426,6.49,17.53,8.171,22.422
		c0.36,1.046,1.043,2.329,2.645,2.252c3.633-0.176,13.734,6.187,18.74,2.686c2.022-1.414,3.011-1.03,4.425,0.495
		c1.993,2.151,4.524,3.319,6.968,1.086c1.997-1.824,3.217-0.71,4.536,0.433c4.831,4.189,3.212,6.591,0.348,11.215
		c-3.514,5.672,1.034,3.952,17.885,6.756c11.129,1.852,22.357,0.68,33.523,1.292c15.567,0.853,23.708-9.928,0.991-23.009
		c-2.679-1.543-4.593-2.492-9.998-12.366c-1.953-3.567-1.96-1.938-4.64-18.799c-1.622-10.202-7.407-13.189-8.909-18.311
		c-3.763-12.827-5.683-25.858-7.389-39.087c-0.184-1.428-0.353-2.763-1.054-4.046c-11.169-20.433-7.749-32.126-12.716-49.38
		c-2.58-8.964-1.646-9.753-3.556-21.417c-3.255-19.9,0.695-14.875,4.898-47.14c3.474-26.66,1.167-32.241,4.735-32.241
		c2.806,0,5.849-1.138,8.39,0.372c9.154,5.44,26.075-8.669,38.675-7.646c7.525,0.611,3.195-6.771,9.035-7.719
		c8.736-1.418,4.765-8.223,12.674-8.26c10.704-0.051,15.281-1.493,19.634,7.527c1.497,3.103,3.874,5.998,4.275,9.413
		c1.681,14.3,18.13,34.969,20.109,38.033c21.423,33.163,24.186,32.277,22.593,37.687c-4.481,15.219,2.285,11.146-3.173,22.667
		c-1.362,2.875-3.172,5.53-4.082,8.63c-2.136,7.279-6.418,13.847-7.162,21.595c-0.186,1.94-3.789,4.774-1.845,6.08
		c3.191,2.144,4.161-6.089,7.221-4.228c1.33,0.809,1.094,2.217,0.344,3.289c-2.093,2.992-2.005,6.334-1.887,9.736
		c0.431,12.313-2.876,24.198-5.897,26.957c-5.032,4.595-0.963,12.94,2.348,15.416c5.781,4.322-3.695,9.742,3.412,11.666
		c0.374,0.101,0.78,0.837,0.819,1.306c0.276,3.347,3.476,4.66,4.941,7.181c0.611,1.05,1.805,1.544,3.129,1.793
		c5.047,0.952,5.041,1.006,5.159,5.871c0.034,1.419,0.365,2.942-0.037,4.231c-0.499,1.601-0.244,2.385,1.36,2.617
		c3.854,0.556,2.82-0.912,4.487-8.472c0.476-2.158,3.705-2.233,3.97,0.371c0.226,2.218-0.463,5.594,1.555,5.645
		c2.007,0.051,2.26-2.897,2.579-5.271c0.88-6.547,4.133-2.575,3.811-9.318c-0.139-2.909,4.348-1.215,4.062-4.846
		c-0.387-4.953-0.51-9.865,1.936-14.437c-1.388-6.178,0.015-12.171,0.881-18.269c0.692-4.88,0.378-9.898,1.734-14.733
		c2.979-10.625-2.089-17.935,0.631-39.724c3.081-24.702,10.503-22.711,1.157-41.784c-2.013-4.107-4.772-7.838-5.023-12.681
		c-0.08-1.532-0.64-3.263-1.541-4.492c-13.701-18.716-2.858-50.788-20.378-67.144c-8.337-7.781,1.694-29.297,1.225-50.769
		c-0.214-9.815,2.601-21.691-0.498-33.3c-3.265-12.237,5.232-16.109,5.06-22.227c-0.213-7.572,0.785-15.344-2.645-22.53
		c-3.48-7.292,1.871-11.996,2.027-18.979c0.142-6.349,1.457-11.935,5.418-17.142c4.096-5.383,4.874-12.417,7.812-18.423
		c1.702-3.48,2.127-7.318,3.454-10.908c2.78-7.516,15.074-21.422,11.95-34.258c-2.024-8.317,3.906-9.995,3.299-20.115
		c-0.282-4.714-1.079-9.604,1.161-14.163c0.691-1.406,0.542-2.792-0.24-4.072c-1.697-2.774-1.313-6.243-3.115-9.002
		c-0.693-1.061-0.494-2.338-0.014-3.591C2387.759,1060.739,2388.552,1059.662,2387.035,1054.258z M257.723,263.662
		c-1.497,7.047-2.428,14.187-3.012,21.367c-0.06,0.733-0.174,1.354-0.6,1.959c-2.832,4.016-3.907,8.822-7.73,13.8
		c-4.532,5.902-10.648,2.563-10.673-3.029c-0.021-4.777-1.189-9.526-0.478-12.986c0.271-6.833-2.184-26.651-2.184-26.651
		c1.696-9.42-5.747-23.913-1.831-25.797c3.243-1.56,4.054,4.307,16.127,8.363c4.983,1.674,7.791,1.453,7.882,6.626
		C255.312,252.406,259.481,255.386,257.723,263.662z M464.544,652.557c-0.046,0.287-0.351,0.533-0.699,1.028
		c-6.068-2.789-6.702-2.393-6.249-6.576c0.231-2.13,1.968-1.533,3.274-1.579C464.418,645.307,465.822,644.523,464.544,652.557z
		 M472.338,656.139c-0.976-1.877-1.878-3.798-2.705-5.746c-0.497-1.17-2.13-2.417-0.429-3.684c1.369-1.02,3.008-0.093,3.881,0.783
		c1.369,1.375,3.823,1.924,3.878,4.421C476.854,654.438,473.756,658.866,472.338,656.139z M512.711,699.593
		c-1.898-0.602-2.849-1.646-1.567-3.453c0.785-1.107,0.533-2.38,1.372-4.142c5.311,4.439,12.148,5.623,17.551,11.067
		C523.376,702.852,518.036,701.282,512.711,699.593z M690.204,788.807c-3.799-2.878,0.553-9.044,5.019-4.482
		C695.318,786.558,692.245,790.353,690.204,788.807z M1995.901,1147.379c1.147-2.416,2.009-5.02,2.087-8.222
		c6.691,2.336-2.028,5.606,3.69,9.635C1998.749,1149.07,1997.23,1148.916,1995.901,1147.379z M2190.47,1595.783
		c-16.01-1.64-13.253-12.364-23.849-39.146c-1.353-3.42-1.264-6.973-1.855-10.413c-1.038-6.041-3.475-12.003-2.233-17.432
		c0.444-5.49,0.366-10.093,1.863-14.57c0.667-1.994,0.205-4.24-0.709-6.24c-1.792-3.922-1.106-3.653,2.952-20.659
		c0.304-1.273,0.943-2.273,1.924-3.1c6.708-5.656,6.23,17.651,12.286,57.128c0.56,3.651,1.75,7.214,2.179,10.873
		c0.516,4.395,1.858,8.277,4.305,12.018c2.902,4.436,1.891,5.257,5.733,28.951C2193.44,1595.5,2192.574,1595.998,2190.47,1595.783z
		 M2335.938,1565.843c-2.302-0.243-2.269-3.564,0.213-3.725C2338.728,1562.638,2337.962,1566.057,2335.938,1565.843z"/>
</g>
</svg>
