<?xml version="1.0" encoding="utf-8"?>

<!DOCTYPE svg PUBLIC "-//W3C//DTD SVG 1.1//EN" "http://www.w3.org/Graphics/SVG/1.1/DTD/svg11.dtd">
<svg version="1.1" id="Layer_1" xmlns="http://www.w3.org/2000/svg" xmlns:xlink="http://www.w3.org/1999/xlink" x="0px" y="0px"
	 viewBox="0 0 1834 1663.585" enable-background="new 0 0 1834 1663.585" xml:space="preserve">
<g id="Red_Heart">
</g>
<g>
	<path fill="#FF0000" enable-background="new    " d="M1783.895,372.718c-49.498-192.738-205.162-314.793-419.315-337.939
		c-18.615-2.012-36.719-2.987-54.37-2.987c-186.155,0-318.606,108.709-394.331,257.288
		C836.769,134.015,701.731,33.439,504.837,33.444c-13.03,0-26.345,0.441-39.919,1.336C269.09,47.687,100.865,164.789,47.864,393.062
		c-95.34,410.626,355.928,830.382,868.016,1238.731C1460.475,1226.215,1885.358,767.797,1783.895,372.718z"/>
	<g>
		<path fill="#FFFFFF" d="M692.065,955.933c-1.036,0.09-2.156,0.135-3.006,0.862c-4.016,2.819-8.071,5.593-12.094,8.412
			c0.047,15.276-2.399,30.58-7.371,45.028c10.966-0.002,21.933-0.008,32.899-0.012c-1.307-3.195-2.395-6.487-3.374-9.764
			C695.071,985.951,693.05,970.935,692.065,955.933z"/>
		<path fill="#FFFFFF" d="M1432,1010.037c-0.12-118.724,0.009-237.448-0.06-356.18c-112.342-0.009-224.692,0.009-337.025-0.009
			c-0.12-112.316-0.069-224.632-0.026-336.957c-119.188,0.069-238.367,0.017-357.555,0.026
			c0.086,112.316-0.06,224.632,0.077,336.957C625.61,653.822,513.801,653.9,402,653.831c0.026,118.818,0,237.629,0.009,356.447
			c10.007-0.01,20.014-0.01,30.021-0.016c-0.146-0.271-0.297-0.539-0.44-0.811c-5.078-9.635-8.226-20.197-10.079-30.901
			c-0.496-13.548,3.669-28.39,14.784-36.983c2.536-0.599,5.284-0.109,7.891-0.232c0.624,0.599,1.236,1.197,1.834,1.809
			c-2.285,8.818-4.531,17.648-6.835,26.466c-1.307,3.939-0.528,8.148-0.045,12.171c1.197,8.058,4.409,15.846,9.513,22.218
			c1.794,2.269,3.794,4.343,5.942,6.251c34.771-0.015,69.541-0.02,104.311-0.016c-0.186-2.603-0.376-5.206-0.541-7.812
			c-2.684-29.433,3.688-59.844,19.013-85.216c12.435-20.783,30.257-37.91,50.1-51.587c3.463-2.201,6.636-5.033,10.639-6.192
			c7.827-2.71,15.576-5.645,23.183-8.901c8.831-3.888,17.726-7.974,25.365-13.947c3.295-2.742,6.842-6.063,7.292-10.575
			c-0.36-6.43-1.442-12.821-1.776-19.257c0.83-8.457,2.304-16.876,1.802-25.41c0.644-0.586,1.287-1.178,1.905-1.744
			c-4.576-12.963-7.962-26.633-7.395-40.465c-0.09-3.289,4.357-5.046,6.61-2.826c7.209,5.838,14.417,11.662,21.613,17.513
			c1.854,0.206,3.907-0.225,4.673-2.13c2.401-5.078,2.478-10.852,2.922-16.348c1.545,0.026,3.405,0.006,4.267,1.551
			c2.446,3.933,2.671,8.753,3.282,13.227c6.945,0,13.883,0,20.821,0c1.879,1.809,3.772,3.611,5.613,5.458
			c4.209,0.129,8.477,0.676,12.351,2.401c4.299,1.783,7.865,5.001,10.536,8.766c-0.27,4.37-1.339,8.657-2.999,12.705
			c-4.37,10.761-11.141,20.294-17.944,29.62c1.306,11.663,2.664,23.331,3.765,35.013c-0.83,14.121-2.188,28.249-4.615,42.196
			c-0.644,4.447-2.098,8.76-2.768,13.181c1.976,10.369,5.471,21.111,13.014,28.809c4.28,1.609,8.766,2.684,13.053,4.312
			c12.84,4.595,25.545,10.42,35.94,19.418c7.672,6.642,13.683,15.692,15.035,25.906c0.547,4.544,1.004,9.616-1.538,13.69
			c-2.324,3.72-7.054,4.975-11.199,4.821c-2.645-1.738-5.278-3.598-7.685-5.651c-3.849-8.464-7.543-17.005-11.283-25.513
			c-24.194-4.853-48.459-9.957-71.739-18.279c-1.307-0.296-2.658-0.142-4.003-0.174c-5.239,13.651-9.185,28.023-9.461,42.73
			c-0.103,1.796,0.515,3.508,0.94,5.226c0.946,3.611,1.886,7.222,2.793,10.845c2.043,1.554,4.16,3.058,6.232,4.619
			c4.01-0.003,8.021-0.001,12.031-0.005c-0.077,68.793-0.009,137.587-0.034,206.379c0.06,43.368-0.112,86.737,0.086,130.105
			c119.617-0.112,239.243-0.043,358.86-0.034c-0.482-21.585-0.06-43.188-0.206-64.773c0.043-90.559-0.043-181.136,0.06-271.677
			c17.711,0.014,35.422,0.019,53.133,0.024c-1.033-7.526-2.231-15.028-3.632-22.492c-1.905-9.577-4.055-19.161-7.614-28.275
			c-2.117-5.194-4.608-10.607-9.159-14.102c-1.828-1.596-4.505-1.21-6.378-2.639c-9.468-6.906-18.446-14.597-26.015-23.576
			c-9.738-11.476-17.043-25.591-18.118-40.799c-0.74-6.938,0.811-13.819,2.111-20.59c3.92-18.729,8.94-37.202,13.883-55.68
			c-4.596-0.302-8.972,2.13-13.561,1.165c-7.788-1.062-15.814-1.442-23.26-4.106c-5.883-4.209-9.21-10.909-12.57-17.12
			c-0.817-1.255-1.094-3.141,0.193-4.19c2.974-2.69,6.829-4.106,10.44-5.728c6.423-2.703,13.053-4.892,19.644-7.157
			c7.125-12.873,18.968-22.662,32.336-28.551c0.051-5.065,0.56-10.33,3.006-14.861c2.034-3.759,5.973-6.604,10.337-6.649
			c1.364,2.362,2.278,4.982,2.562,7.704c0.328,2.317-0.006,4.769,0.959,6.964c1.236,3.173,2.478,6.34,3.675,9.532
			c5.471,0.611,9.481,4.827,12.75,8.895c5.851,7.588,10.227,16.187,14.289,24.831c5.04,10.8,9.378,21.909,13.555,33.07
			c1.126,2.536,0.553,5.368,0.695,8.052c0.219,4.679-0.83,9.275-1.48,13.883c25.526,16.728,54.232,29.993,84.927,32.876
			c1.307,1.661,3.411,2.201,5.432,2.426c6.218,0.772,12.506,0.386,18.762,0.483c7.955-0.052,15.91,0.097,23.866-0.071
			c4.673-0.811,8.74-3.514,12.866-5.715c13.091-7.685,25.513-16.451,37.903-25.204c1.667-1.3,3.63-2.278,5.027-3.894
			c9.21-13.703,18.356-27.47,28.39-40.594c2.922-3.643,5.703-7.518,9.474-10.35c0.965,0.013,1.937,0.026,2.935,0.045
			c4.493,4.518,7.904,10.33,8.65,16.747c0.335,3.862,0.328,7.756,0.206,11.63c0.032,9.841-4.885,18.884-10.671,26.53
			c-8.097,10.549-18.208,19.328-28.661,27.457c-8.226,6.243-16.67,12.235-25.462,17.642c-5.349,1.075-10.742,2.008-16.129,2.845
			c-2.504-0.753-4.872-1.873-7.325-2.742c8.316,7.749,14.746,17.5,18.479,28.242c3.682,10.176,4.879,21.047,5.117,31.808
			c3.514,11.296,9.307,22.025,17.436,30.682c5.111,5.49,11.219,9.983,17.79,13.568c-0.476,2.974-1.641,5.915-1.294,8.972
			c0.644,6.338,1.283,12.676,1.921,19.015C1396.62,1010.233,1414.315,1010.408,1432,1010.037z"/>
		<path fill="#FFFFFF" d="M1348.839,993.624c0.224,5.54,0.563,11.076,0.941,16.61c4.386,0,8.772,0,13.157,0
			C1360.114,1003.41,1354.712,997.954,1348.839,993.624z"/>
		<path fill="#FFFFFF" d="M1333.353,1001.637c-1.957-5.928-6.314-10.652-10.877-14.739c-11.341-9.841-24.87-16.651-38.225-23.28
			c-2.787-3.437-5.065-7.267-7.408-11.013c-1.937-3.263-3.907-6.61-4.634-10.382c-3.102,0.444-6.179,1.68-9.333,1.294
			c-2.523-1.358-2.941-4.57-3.817-7.028c-7.312-0.908-14.61-2.015-21.935-2.768c-19.708,5.323-40.169,6.97-60.456,8.509
			c0.438,2.497,1.216,4.95,1.364,7.492c-1.229,8.58-2.626,17.146-3.926,25.719c-0.644,3.186-0.161,6.436-0.122,9.661
			c0.348,8.374,0.594,16.758,0.924,25.137c53.074,0.007,106.15-0.007,159.227-0.006
			C1334.146,1007.341,1334.307,1004.408,1333.353,1001.637z"/>
		<path fill="#FFFFFF" d="M1153.079,1030.845c0.109,10.903-6.945,20.236-14.733,27.18c0.103,1.12-0.109,2.427,0.824,3.295
			c1.01,0.798,2.369,0.798,3.591,1.068c-1.017,1.931-1.995,3.875-3.025,5.799c0.367,1.802,1.429,3.501,3.231,4.158
			c5.059,2.034,10.646,1.146,15.962,1.319c1.802-2.002,4.641-2.182,6.867-3.508c4.023-1.976,7.402-5.773,7.814-10.369
			c0.38-6.423-0.29-12.905,0.682-19.289c0.573-4.164,1.866-8.56,5.271-11.296c-1.442-3.842-3.173-7.601-4.338-11.527
			c-0.118-2.478-0.22-4.957-0.318-7.437c-8.087-0.001-16.173-0.004-24.26-0.006
			C1151.59,1017.087,1152.395,1023.961,1153.079,1030.845z"/>
		<path fill="#FFFFFF" d="M1362.937,1010.235c0.236,0.571,0.461,1.149,0.66,1.739c2.182,6.057,1.223,12.577,1.455,18.871
			c0.219,3.546-1.023,6.958-2.6,10.073c-2.69,5.239-6.198,10.002-9.841,14.61c-0.586,0.631-0.785,1.474-1.01,2.285
			c1.577,1.448,3.077,2.974,4.641,4.447c5.349-0.077,10.697,0.084,16.046-0.071c4.776-1.757,9.468-5.561,10.272-10.871
			c0.431-3.836-0.386-7.666-0.669-11.482c-0.976-9.875-1.964-19.75-2.958-29.624c-4.469-0.005-8.938-0.003-13.406,0.022
			C1364.662,1010.235,1363.8,1010.235,1362.937,1010.235z"/>
		<path fill="#FFFFFF" d="M1334.145,1011.511c-0.058,2.967,0.109,5.947-0.09,8.914c-0.554,3.36-2.42,6.308-4.254,9.114
			c-3.141,4.557-6.745,8.786-10.51,12.84c0.084,1.403,0.393,3.038,1.899,3.604c4.904,2.253,10.523,2.259,15.788,1.545
			c4.692-0.682,9.59-2.156,12.956-5.677c0.785-0.94,1.95-1.892,1.77-3.257c-0.511-9.459-1.276-18.907-1.923-28.36
			c-5.215-0.001-10.43,0-15.644,0C1334.134,1010.661,1334.135,1011.086,1334.145,1011.511z"/>
		<path fill="#FFFFFF" d="M710.621,1023.945c4.029,4.647,10.053,7.82,16.31,7.363c3.662-0.039,6.842-2.459,8.715-5.471
			c1.107-1.796,2.755-4.106,1.036-6.069c-2.704-3.785-6.258-6.762-9.962-9.554c-8.075,0.005-16.151,0.006-24.226,0.009
			C704.522,1015.179,707.083,1019.898,710.621,1023.945z"/>
		<path fill="#FFFFFF" d="M558.906,1010.234c0.242,3.39,0.477,6.781,0.637,10.177c-19.006,5.606-38.804,8.135-58.557,9.088
			c-9.288-1.5-18.453-3.958-27.167-7.543c-6.922-2.897-13.598-6.711-19.224-11.707c-7.522,0.003-15.043,0.008-22.565,0.012
			c5.031,9.311,12.021,17.615,20.645,23.788c9.848,7.144,21.523,11.444,33.43,13.638c12.757,2.472,25.803,2.098,38.733,1.995
			c19.322-1.107,38.643-2.426,57.926-4.119c14.031-1.313,28.069-2.729,41.977-5.007c5.426-0.946,10.852-1.963,16.11-3.617
			c0.811,4.679,5.909,6.32,9.86,7.492c14.179,3.585,28.944,3.231,43.451,3.604c6.468,1.558,12.879,3.398,19.322,5.052
			c1.834,0.657,3.591-0.483,5.284-1.017c3.63-1.519,7.73-3.501,9.21-7.415c0.187-2.336,0.367-4.776-0.129-7.067
			c-1.622-3.032-5.207-4.119-8.206-5.303c-10.671-3.514-21.89-4.937-32.992-6.398c-1.326-2.761-4.48-3.611-7.234-4.216
			c-4.518-0.991-9.159-1.126-13.761-1.371c1.454-3.3,2.765-6.66,3.937-10.067C632.698,1010.24,595.802,1010.238,558.906,1010.234z"
			/>
	</g>
</g>
</svg>
